<svg width="26" height="26" viewBox="0 0 26 26" fill="none" xmlns="http://www.w3.org/2000/svg">
<path fill-rule="evenodd" clip-rule="evenodd" d="M9.07448 19.3649L11.4894 22.5035C11.7086 22.7883 11.6702 23.1916 11.4039 23.4332L10.5734 24.1868C10.4251 24.3214 10.2466 24.3813 10.0471 24.3633C9.84773 24.3452 9.68345 24.2539 9.56102 24.0954L6.88368 20.6297L9.07448 19.3649ZM22.3217 11.3101H24.7812C25.1746 11.3101 25.493 10.9888 25.4922 10.5959C25.4913 10.2025 25.1706 9.88461 24.7777 9.88461H22.3182C21.9248 9.88461 21.6064 10.2059 21.6072 10.5988C21.608 10.9923 21.9288 11.3101 22.3217 11.3101ZM19.4024 4.83437L20.6321 2.7044C20.8286 2.36411 20.7137 1.92739 20.3734 1.72996C20.0336 1.53282 19.5962 1.64784 19.3995 1.98853L18.1697 4.1185C17.9732 4.45879 18.0881 4.89551 18.4284 5.09295C18.7683 5.29008 19.2056 5.17506 19.4024 4.83437ZM22.2479 7.38572L24.2672 6.21993C24.6099 6.02204 24.7273 5.58385 24.5294 5.24102C24.3316 4.89825 23.8934 4.78084 23.5505 4.97874L21.5314 6.14457C21.1886 6.34247 21.0712 6.78066 21.2691 7.12348C21.467 7.46621 21.9052 7.58361 22.2479 7.38572ZM19.0722 10.5935L21.4538 14.7186C21.901 15.4931 21.6331 16.4926 20.8587 16.9398C20.136 17.3571 19.2173 17.1517 18.7344 16.493H18.7343C16.098 16.092 12.664 16.5227 9.24932 17.8539L5.96652 12.1679C8.82773 9.87877 10.9243 7.13476 11.8952 4.6512L11.8952 4.6511C11.5542 3.90014 11.8343 2.99116 12.5627 2.57064C13.3372 2.12346 14.3367 2.39133 14.7839 3.1658L17.1655 7.29096C17.2333 7.23855 17.3054 7.19006 17.3816 7.14603C18.3019 6.61471 19.4787 6.93001 20.01 7.85032C20.5413 8.77062 20.226 9.94743 19.3057 10.4788C19.2295 10.5228 19.1515 10.561 19.0722 10.5935ZM8.42387 18.4554L4.984 12.4974L2.24938 14.0762C0.587715 15.0356 0.0131756 17.1801 0.972484 18.8417L0.972535 18.8417C1.93189 20.5033 4.07629 21.0779 5.73795 20.1186L8.47257 18.5398L8.42387 18.4554Z" fill="#405264"/>
</svg>
