<svg width="64" height="64" viewBox="0 0 64 64" fill="none" xmlns="http://www.w3.org/2000/svg">
<path fill-rule="evenodd" clip-rule="evenodd" d="M22.3372 47.6679L28.2816 55.3935C28.8212 56.0947 28.7266 57.0875 28.0712 57.682L26.0269 59.5373C25.6618 59.8685 25.2224 60.0159 24.7314 59.9715C24.2406 59.9271 23.8362 59.7023 23.5348 59.3121L16.9444 50.7812L22.3372 47.6679ZM54.9458 27.8406H60.9999C61.9683 27.8406 62.7519 27.0497 62.7499 26.0826C62.7479 25.1143 61.9583 24.3317 60.9912 24.3317H54.9371C53.9687 24.3317 53.1851 25.1226 53.1871 26.0896C53.1889 27.0582 53.9786 27.8406 54.9458 27.8406ZM47.7597 11.9004L50.7868 6.65737C51.2704 5.81975 50.9877 4.74475 50.1499 4.25875C49.3134 3.7735 48.2367 4.05662 47.7526 4.89525L44.7254 10.1382C44.2418 10.9759 44.5246 12.0509 45.3623 12.5369C46.1988 13.0221 47.2754 12.739 47.7597 11.9004ZM54.7642 18.1806L59.7346 15.311C60.5783 14.8239 60.8673 13.7452 60.3802 12.9014C59.8931 12.0576 58.8144 11.7686 57.9706 12.2557L53.0003 15.1255C52.1566 15.6126 51.8676 16.6912 52.3547 17.5351C52.8418 18.3787 53.9204 18.6677 54.7642 18.1806ZM46.9469 26.0766L52.8094 36.2309C53.9102 38.1372 53.2508 40.5976 51.3444 41.6984C49.5654 42.7255 47.3042 42.2199 46.1154 40.5985H46.1152C39.6259 39.6114 31.1729 40.6717 22.7676 43.9484L14.6868 29.9522C21.7298 24.3174 26.8906 17.5629 29.2804 11.4495L29.2806 11.4492C28.4411 9.60075 29.1307 7.36325 30.9236 6.32812C32.8301 5.22737 35.2903 5.88675 36.3911 7.79312L42.2536 17.9474C42.4204 17.8184 42.5978 17.699 42.7856 17.5906C45.0508 16.2827 47.9476 17.0589 49.2554 19.3242C50.5633 21.5896 49.7872 24.4864 47.5218 25.7943C47.3342 25.9026 47.1421 25.9966 46.9469 26.0766ZM20.7357 45.429L12.2683 30.7633L5.53693 34.6496C1.44668 37.0111 0.0324322 42.2897 2.39381 46.3799L2.39393 46.38C4.75543 50.4701 10.0339 51.8845 14.1242 49.5231L20.8556 45.6367L20.7357 45.429Z" fill="url(#paint0_linear_2547_5810)"/>
<defs>
<linearGradient id="paint0_linear_2547_5810" x1="62.7499" y1="12.7651" x2="-6.72884" y2="38.0848" gradientUnits="userSpaceOnUse">
<stop stop-color="#CB62FF"/>
<stop offset="0.729" stop-color="#4A5FFF"/>
</linearGradient>
</defs>
</svg>
