<svg width="45" height="58" viewBox="0 0 45 58" fill="none" xmlns="http://www.w3.org/2000/svg">
<path d="M32.1174 9.956V0.363037H3.45759C1.73535 0.363037 0.338867 1.76016 0.338867 3.4824V54.8437C0.338867 56.5659 1.73535 57.963 3.45759 57.963H41.711C43.4333 57.963 44.8297 56.5659 44.8297 54.8437V13.0754H35.2374C33.5152 13.0754 32.1174 11.6789 32.1174 9.956ZM12.2576 36.5077H12.2461C11.6585 36.5077 11.2323 36.0584 11.2323 35.4472C11.2323 34.8136 11.6585 34.3758 12.2691 34.3758C12.8688 34.3758 13.2829 34.8021 13.295 35.4472C13.295 36.0584 12.8803 36.5077 12.2576 36.5077ZM18.4912 35.044C19.0326 35.044 19.6086 34.941 19.9664 34.7906L20.2198 36.173C19.9088 36.3227 19.1709 36.507 18.2377 36.507C15.5529 36.507 14.1705 34.8245 14.1705 32.6005C14.1705 29.9502 16.0598 28.4866 18.4105 28.4866C19.3213 28.4866 20.0125 28.6715 20.3235 28.8328L19.9549 30.2152C19.6093 30.0654 19.1139 29.9272 18.4797 29.9272C17.0966 29.9272 16.0137 30.7682 16.0137 32.5083C16.0137 34.0648 16.9347 35.044 18.4912 35.044ZM23.3974 36.5077C22.5097 36.5077 21.6342 36.2658 21.1965 36.0232L21.5542 34.5832C22.0157 34.8251 22.7529 35.067 23.5017 35.067C24.3081 35.067 24.735 34.7336 24.735 34.2146C24.735 33.7422 24.3664 33.4542 23.4333 33.131C22.1417 32.6702 21.2893 31.956 21.2893 30.8149C21.2893 29.4901 22.4067 28.4872 24.2281 28.4872C25.1152 28.4872 25.7494 28.6606 26.2102 28.8789L25.8185 30.2843C25.5184 30.1352 24.9539 29.9157 24.2051 29.9157C23.4448 29.9157 23.0761 30.2734 23.0761 30.6651C23.0761 31.1605 23.5024 31.3794 24.5161 31.7717C25.8877 32.2786 26.5213 32.9934 26.5213 34.1C26.52 35.4018 25.5293 36.5077 23.3974 36.5077ZM31.7155 36.381H29.6643L27.1747 28.6139H29.0998L30.0451 31.8984C30.3101 32.8315 30.5513 33.707 30.7363 34.6754H30.7709C30.9667 33.7422 31.2093 32.8206 31.4742 31.933L32.4649 28.6139H34.3318L31.7155 36.381Z" fill="#72BF44"/>
</svg>
