<svg width="26" height="26" viewBox="0 0 26 26" fill="none" xmlns="http://www.w3.org/2000/svg">
<g clip-path="url(#clip0_4195_2326)">
<path d="M13 3.74508C12.5515 3.74508 12.1875 3.38108 12.1875 2.93258V0.8125C12.1875 0.364 12.5515 0 13 0C13.4485 0 13.8125 0.364 13.8125 0.8125V2.93258C13.8125 3.38108 13.4485 3.74508 13 3.74508Z" fill="url(#paint0_linear_4195_2326)"/>
<path d="M20.1189 6.69399C19.9109 6.69399 19.7029 6.61491 19.5447 6.45566C19.2273 6.13824 19.2273 5.62366 19.5447 5.30624L21.044 3.80691C21.3615 3.48949 21.876 3.48949 22.1935 3.80691C22.5109 4.12433 22.5109 4.63891 22.1935 4.95633L20.6941 6.45566C20.5349 6.61383 20.3269 6.69399 20.1189 6.69399Z" fill="url(#paint1_linear_4195_2326)"/>
<path d="M25.1875 13.8125H23.0674C22.6189 13.8125 22.2549 13.4485 22.2549 13C22.2549 12.5515 22.6189 12.1875 23.0674 12.1875H25.1875C25.636 12.1875 26 12.5515 26 13C26 13.4485 25.636 13.8125 25.1875 13.8125Z" fill="url(#paint2_linear_4195_2326)"/>
<path d="M21.6182 22.4303C21.4102 22.4303 21.2022 22.3512 21.044 22.192L19.5447 20.6927C19.2273 20.3752 19.2273 19.8607 19.5447 19.5432C19.8621 19.2258 20.3767 19.2258 20.6941 19.5432L22.1935 21.0426C22.5109 21.36 22.5109 21.8746 22.1935 22.192C22.0342 22.3512 21.8262 22.4303 21.6182 22.4303Z" fill="url(#paint3_linear_4195_2326)"/>
<path d="M4.38254 22.4303C4.17454 22.4303 3.96654 22.3512 3.80838 22.192C3.49096 21.8746 3.49096 21.36 3.80838 21.0426L5.30771 19.5432C5.62513 19.2258 6.13971 19.2258 6.45712 19.5432C6.77454 19.8607 6.77454 20.3752 6.45712 20.6927L4.95779 22.192C4.79854 22.3512 4.59054 22.4303 4.38254 22.4303Z" fill="url(#paint4_linear_4195_2326)"/>
<path d="M2.93258 13.8125H0.8125C0.364 13.8125 0 13.4485 0 13C0 12.5515 0.364 12.1875 0.8125 12.1875H2.93258C3.38108 12.1875 3.74508 12.5515 3.74508 13C3.74508 13.4485 3.38108 13.8125 2.93258 13.8125Z" fill="url(#paint5_linear_4195_2326)"/>
<path d="M5.88187 6.69399C5.67387 6.69399 5.46588 6.61491 5.30771 6.45566L3.80838 4.95633C3.49096 4.63891 3.49096 4.12433 3.80838 3.80691C4.12579 3.48949 4.64038 3.48949 4.95779 3.80691L6.45712 5.30624C6.77454 5.62366 6.77454 6.13824 6.45712 6.45566C6.29679 6.61383 6.08987 6.69399 5.88187 6.69399Z" fill="url(#paint6_linear_4195_2326)"/>
<path d="M16.25 22.75V24.1042C16.25 25.1442 15.3942 26 14.3542 26H11.6458C10.7358 26 9.75 25.3067 9.75 23.79V22.75H16.25Z" fill="url(#paint7_linear_4195_2326)"/>
<path d="M17.7773 7.10648C16.0006 5.66565 13.6606 5.10232 11.3748 5.58982C8.50393 6.18565 6.17476 8.52565 5.57893 11.3965C4.97226 14.3432 6.07726 17.2682 8.43893 19.0557C9.0781 19.5323 9.52226 20.269 9.67393 21.1248V21.1357C9.6956 21.1248 9.7281 21.1248 9.74976 21.1248H16.2498C16.2714 21.1248 16.2823 21.1248 16.3039 21.1357V21.1248C16.4556 20.3015 16.9431 19.5431 17.6906 18.9581C19.5214 17.5065 20.5831 15.3398 20.5831 12.9998C20.5831 10.7032 19.5648 8.55815 17.7773 7.10648ZM17.0623 13.5415C16.6181 13.5415 16.2498 13.1732 16.2498 12.729C16.2498 11.0823 14.9173 9.74982 13.2706 9.74982C12.8264 9.74982 12.4581 9.38148 12.4581 8.93732C12.4581 8.49315 12.8264 8.12482 13.2706 8.12482C15.8056 8.12482 17.8748 10.194 17.8748 12.729C17.8748 13.1732 17.5064 13.5415 17.0623 13.5415Z" fill="url(#paint8_linear_4195_2326)"/>
<path d="M9.67383 21.125H9.74966C9.72799 21.125 9.69549 21.125 9.67383 21.1358V21.125Z" fill="url(#paint9_linear_4195_2326)"/>
<path d="M16.3042 21.125V21.1358C16.2825 21.125 16.2717 21.125 16.25 21.125H16.3042Z" fill="url(#paint10_linear_4195_2326)"/>
</g>
<defs>
<linearGradient id="paint0_linear_4195_2326" x1="13.8125" y1="0.585169" x2="11.775" y2="0.878306" gradientUnits="userSpaceOnUse">
<stop stop-color="#CB62FF"/>
<stop offset="0.729" stop-color="#4A5FFF"/>
</linearGradient>
<linearGradient id="paint1_linear_4195_2326" x1="22.4315" y1="4.05715" x2="18.8285" y2="5.25175" gradientUnits="userSpaceOnUse">
<stop stop-color="#CB62FF"/>
<stop offset="0.729" stop-color="#4A5FFF"/>
</linearGradient>
<linearGradient id="paint2_linear_4195_2326" x1="26" y1="12.4414" x2="22.9741" y2="14.7537" gradientUnits="userSpaceOnUse">
<stop stop-color="#CB62FF"/>
<stop offset="0.729" stop-color="#4A5FFF"/>
</linearGradient>
<linearGradient id="paint3_linear_4195_2326" x1="22.4315" y1="19.7935" x2="18.8285" y2="20.9881" gradientUnits="userSpaceOnUse">
<stop stop-color="#CB62FF"/>
<stop offset="0.729" stop-color="#4A5FFF"/>
</linearGradient>
<linearGradient id="paint4_linear_4195_2326" x1="6.69519" y1="19.7935" x2="3.09213" y2="20.9881" gradientUnits="userSpaceOnUse">
<stop stop-color="#CB62FF"/>
<stop offset="0.729" stop-color="#4A5FFF"/>
</linearGradient>
<linearGradient id="paint5_linear_4195_2326" x1="3.74508" y1="12.4414" x2="0.719252" y2="14.7537" gradientUnits="userSpaceOnUse">
<stop stop-color="#CB62FF"/>
<stop offset="0.729" stop-color="#4A5FFF"/>
</linearGradient>
<linearGradient id="paint6_linear_4195_2326" x1="6.69519" y1="4.05715" x2="3.09213" y2="5.25175" gradientUnits="userSpaceOnUse">
<stop stop-color="#CB62FF"/>
<stop offset="0.729" stop-color="#4A5FFF"/>
</linearGradient>
<linearGradient id="paint7_linear_4195_2326" x1="16.25" y1="23.2578" x2="10.4724" y2="27.0893" gradientUnits="userSpaceOnUse">
<stop stop-color="#CB62FF"/>
<stop offset="0.729" stop-color="#4A5FFF"/>
</linearGradient>
<linearGradient id="paint8_linear_4195_2326" x1="20.5831" y1="7.87386" x2="2.97442" y2="13.5084" gradientUnits="userSpaceOnUse">
<stop stop-color="#CB62FF"/>
<stop offset="0.729" stop-color="#4A5FFF"/>
</linearGradient>
<linearGradient id="paint9_linear_4195_2326" x1="9.74966" y1="21.1267" x2="9.73447" y2="21.162" gradientUnits="userSpaceOnUse">
<stop stop-color="#CB62FF"/>
<stop offset="0.729" stop-color="#4A5FFF"/>
</linearGradient>
<linearGradient id="paint10_linear_4195_2326" x1="16.3042" y1="21.1267" x2="16.2857" y2="21.1574" gradientUnits="userSpaceOnUse">
<stop stop-color="#CB62FF"/>
<stop offset="0.729" stop-color="#4A5FFF"/>
</linearGradient>
<clipPath id="clip0_4195_2326">
<rect width="26" height="26" fill="white"/>
</clipPath>
</defs>
</svg>
