<svg width="26" height="26" viewBox="0 0 26 26" fill="none" xmlns="http://www.w3.org/2000/svg">
<path d="M12.9999 2C6.61524 2 1.42093 6.67481 1.42093 12.4211C1.42093 14.4296 2.05623 16.3753 3.26121 18.0577C3.03311 20.5807 2.42174 22.4538 1.53402 23.3412C1.41668 23.4585 1.38735 23.638 1.46146 23.7862C1.52707 23.9186 1.66216 24 1.80689 24C1.82465 24 1.8424 23.9988 1.86054 23.9961C2.01686 23.9741 5.64802 23.4515 8.27451 21.9355C9.76588 22.5372 11.3545 22.8421 12.9999 22.8421C19.3845 22.8421 24.5788 18.1673 24.5788 12.4211C24.5788 6.67481 19.3845 2 12.9999 2ZM7.59637 13.9649C6.74493 13.9649 6.05251 13.2725 6.05251 12.4211C6.05251 11.5696 6.74493 10.8772 7.59637 10.8772C8.44781 10.8772 9.14023 11.5696 9.14023 12.4211C9.14023 13.2725 8.44781 13.9649 7.59637 13.9649ZM12.9999 13.9649C12.1484 13.9649 11.456 13.2725 11.456 12.4211C11.456 11.5696 12.1484 10.8772 12.9999 10.8772C13.8513 10.8772 14.5437 11.5696 14.5437 12.4211C14.5437 13.2725 13.8513 13.9649 12.9999 13.9649ZM18.4034 13.9649C17.5519 13.9649 16.8595 13.2725 16.8595 12.4211C16.8595 11.5696 17.5519 10.8772 18.4034 10.8772C19.2548 10.8772 19.9472 11.5696 19.9472 12.4211C19.9472 13.2725 19.2548 13.9649 18.4034 13.9649Z" fill="url(#paint0_linear_4195_3540)"/>
<defs>
<linearGradient id="paint0_linear_4195_3540" x1="24.5788" y1="5.4375" x2="-1.83962" y2="14.6584" gradientUnits="userSpaceOnUse">
<stop stop-color="#CB62FF"/>
<stop offset="0.729" stop-color="#4A5FFF"/>
</linearGradient>
</defs>
</svg>
