<svg width="100" height="56" viewBox="0 0 100 56" fill="none" xmlns="http://www.w3.org/2000/svg">
<g clip-path="url(#clip0_2292_2042)">
<path d="M32.587 13.9102C32.1871 13.6756 31.7244 13.5582 31.1972 13.5582C30.6701 13.5582 30.2272 13.6756 29.829 13.9102C29.4291 14.1449 29.1167 14.4704 28.8887 14.8835C28.6607 15.2967 28.5466 15.7742 28.5466 16.3163C28.5466 16.8583 28.6607 17.3392 28.8887 17.7589C29.1167 18.1803 29.4307 18.5075 29.829 18.7421C30.2272 18.9768 30.685 19.0958 31.1972 19.0958C31.7095 19.0958 32.1921 18.9784 32.5969 18.7421C33.0034 18.5075 33.3158 18.1803 33.5372 17.7589C33.7586 17.3392 33.8693 16.8583 33.8693 16.3163C33.8693 15.7742 33.7553 15.2967 33.5273 14.8835C33.2992 14.4704 32.9853 14.1449 32.587 13.9102Z" fill="url(#paint0_linear_2292_2042)"/>
<path d="M60.7112 13.8888C60.3195 13.6541 59.8585 13.5352 59.333 13.5352C58.8075 13.5352 58.3663 13.6525 57.9746 13.8888C57.583 14.1234 57.2756 14.4523 57.0558 14.872C56.8344 15.2934 56.7253 15.7743 56.7253 16.3147C56.7253 16.855 56.8361 17.359 57.0558 17.7788C57.2773 18.2002 57.583 18.5274 57.9746 18.762C58.3663 18.9967 58.8191 19.114 59.333 19.114C60.1163 19.114 60.7508 18.8546 61.235 18.334C61.7192 17.8135 61.9621 17.1409 61.9621 16.313C61.9621 15.771 61.8514 15.2901 61.6316 14.8704C61.4102 14.4506 61.1045 14.1218 60.7112 13.8871V13.8888Z" fill="url(#paint1_linear_2292_2042)"/>
<path d="M77.4991 0.384521H5.86804C3.10505 0.384521 0.864258 2.51294 0.864258 5.13712V24.169C0.864258 24.2896 0.874173 24.4069 0.882435 24.5243L0.943578 39.9884L11.6964 28.9216H77.4974C80.2604 28.9216 82.5012 26.7932 82.5012 24.169V5.13712C82.5012 2.51294 80.2604 0.384521 77.4974 0.384521H77.4991ZM22.9384 20.507C21.9551 21.3052 20.6084 21.7051 18.898 21.7051C17.6867 21.7051 16.649 21.4985 15.7864 21.0854C14.9237 20.6723 14.1438 20.0526 13.4448 19.2247L15.3699 17.2995C15.8111 17.8845 16.3251 18.3373 16.9101 18.6579C17.495 18.9785 18.2073 19.1388 19.0484 19.1388C19.8036 19.1388 20.4068 18.9884 20.8546 18.6893C21.3024 18.3902 21.5271 17.9771 21.5271 17.4499C21.5271 16.9938 21.3983 16.6237 21.1421 16.3378C20.886 16.0535 20.5472 15.8106 20.1258 15.6107C19.7044 15.4107 19.2417 15.229 18.7361 15.0654C18.2304 14.9018 17.7247 14.7117 17.2191 14.4985C16.7134 14.2854 16.2491 14.0177 15.8293 13.6971C15.4096 13.3765 15.0708 12.9634 14.8147 12.4577C14.5585 11.952 14.4296 11.3142 14.4296 10.5441C14.4296 9.63192 14.6511 8.85525 15.0923 8.21408C15.5335 7.57291 16.14 7.08046 16.9101 6.73839C17.6801 6.39633 18.5493 6.22446 19.5194 6.22446C20.5456 6.22446 21.4726 6.41616 22.2989 6.80119C23.1251 7.18622 23.8026 7.68528 24.3298 8.29836L22.4046 10.2235C21.9634 9.73934 21.5106 9.3824 21.0463 9.15435C20.5836 8.92631 20.0597 8.81228 19.4747 8.81228C18.8055 8.81228 18.2767 8.94118 17.8933 9.19732C17.5083 9.45345 17.3166 9.82527 17.3166 10.3095C17.3166 10.7226 17.4455 11.058 17.7016 11.3142C17.9577 11.5703 18.2965 11.7917 18.7179 11.9768C19.1376 12.1619 19.602 12.3404 20.1076 12.5106C20.6133 12.6824 21.119 12.8741 21.6263 13.0873C22.132 13.3005 22.5963 13.5798 23.0161 13.9218C23.4358 14.2639 23.7746 14.7018 24.0323 15.2372C24.2885 15.771 24.4174 16.432 24.4174 17.2153C24.4174 18.6116 23.9249 19.7105 22.9417 20.5087L22.9384 20.507ZM36.008 19.0413C35.5238 19.8609 34.8645 20.5103 34.03 20.9879C33.1955 21.4655 32.2585 21.7035 31.2191 21.7035C30.1797 21.7035 29.241 21.4655 28.4082 20.9879C27.5753 20.5103 26.911 19.8626 26.4202 19.0413C25.9294 18.2216 25.6832 17.3061 25.6832 16.2948C25.6832 15.2835 25.9261 14.3746 26.4103 13.5682C26.8945 12.7634 27.5571 12.1222 28.3983 11.643C29.2394 11.1654 30.173 10.9275 31.1992 10.9275C32.2255 10.9275 33.1988 11.1671 34.0316 11.643C34.8661 12.1206 35.5238 12.7618 36.0097 13.5682C36.4939 14.3746 36.7368 15.2818 36.7368 16.2948C36.7368 17.3078 36.4939 18.2233 36.0097 19.0413H36.008ZM45.7 21.254C45.0158 21.5531 44.2672 21.7035 43.4542 21.7035C42.3999 21.7035 41.4514 21.4688 40.6102 20.9978C39.7691 20.5269 39.1065 19.8857 38.6223 19.0743C38.1381 18.2613 37.8952 17.3491 37.8952 16.3378C37.8952 15.3264 38.1381 14.3928 38.6223 13.5798C39.1065 12.7667 39.7724 12.1222 40.6218 11.6447C41.4695 11.1671 42.4148 10.9291 43.4542 10.9291C44.2672 10.9291 45.0158 11.0795 45.7 11.3786C46.3841 11.6777 46.9757 12.1057 47.4747 12.661L45.6785 14.4787C45.4075 14.1796 45.0836 13.9516 44.7051 13.7946C44.3267 13.6376 43.9103 13.5599 43.4542 13.5599C42.9403 13.5599 42.4809 13.6773 42.076 13.9119C41.6695 14.1466 41.3489 14.4671 41.1143 14.8737C40.8796 15.2802 40.7606 15.7611 40.7606 16.3163C40.7606 16.8715 40.878 17.3392 41.1143 17.7589C41.3489 18.1803 41.6695 18.5075 42.076 18.7422C42.4825 18.9768 42.9419 19.0958 43.4542 19.0958C43.9252 19.0958 44.3482 19.0132 44.7266 18.8496C45.1034 18.686 45.4289 18.4464 45.7 18.1341L47.5177 19.9518C46.9906 20.5219 46.3841 20.9565 45.7 21.2556V21.254ZM51.9696 21.4903H49.1471V11.1638H51.9696V21.4903ZM51.7035 9.03537C51.411 9.34274 51.0309 9.49477 50.56 9.49477C50.089 9.49477 49.7254 9.34274 49.4263 9.03537C49.1272 8.72801 48.9769 8.34793 48.9769 7.89184C48.9769 7.43575 49.1256 7.0722 49.4263 6.75822C49.7254 6.44425 50.1022 6.28726 50.56 6.28726C51.0177 6.28726 51.411 6.44425 51.7035 6.75822C51.996 7.0722 52.1414 7.45062 52.1414 7.89184C52.1414 8.33306 51.996 8.72966 51.7035 9.03537ZM64.5914 21.4903H61.8119V20.4823C61.5276 20.783 61.1955 21.0408 60.8071 21.2441C60.2221 21.5498 59.5595 21.7035 58.8192 21.7035C57.8789 21.7035 57.0295 21.4688 56.2743 20.9978C55.5191 20.5269 54.9275 19.8857 54.4995 19.0743C54.0715 18.2613 53.8584 17.3491 53.8584 16.3378C53.8584 15.3264 54.0715 14.3928 54.4995 13.5798C54.9275 12.7667 55.5175 12.1256 56.2743 11.6546C57.0295 11.1836 57.8772 10.949 58.8192 10.949C59.5595 10.949 60.2221 11.0977 60.8071 11.3984C61.1955 11.5968 61.5276 11.8529 61.8119 12.1569V11.1638H64.5914V21.4903ZM69.9223 21.4903H67.1213V6.03112H69.9223V21.4903Z" fill="url(#paint2_linear_2292_2042)"/>
<path d="M91.2232 46.7177C91.2051 46.8681 91.129 47.0118 91.0035 47.111C89.3642 48.3999 87.6472 49.6228 85.8377 50.7283C83.8696 51.9297 81.7742 52.9625 79.5979 53.7887C75.2386 55.4479 70.5951 56.2824 65.9614 56.3733C61.3096 56.4757 56.6265 55.7833 52.2787 54.2052C50.1007 53.4335 47.9938 52.4816 46.0273 51.3001C44.0559 50.14 42.177 48.8015 40.5691 47.1986C44.464 49.4939 48.6432 51.0902 52.9034 52.1412C57.1569 53.2236 61.5327 53.6086 65.8606 53.4235C70.2199 53.2484 74.5462 52.5147 78.6675 51.1679C79.355 50.9464 80.0408 50.7184 80.7299 50.4738C81.4239 50.2326 82.1163 49.9781 82.8021 49.712C85.3783 48.7139 87.9182 47.5423 90.3441 46.1377C90.6085 45.9856 90.9473 46.055 91.1208 46.3128C91.2067 46.4335 91.2381 46.5805 91.2232 46.716V46.7177Z" fill="#0D1B60"/>
<path d="M87.0836 43.7597L98.5751 39.326C99.1303 39.1128 99.7037 39.5888 99.5947 40.1738L97.9405 49.0675C97.81 49.7731 96.9887 50.102 96.407 49.6823L92.4261 46.8102C92.1138 46.5838 92.089 46.1277 92.3749 45.8699L96.3458 42.289C96.45 42.1964 96.4483 42.0328 96.3442 41.9403C96.2665 41.8709 96.1525 41.8626 96.0649 41.9171L90.8496 45.1974C90.3787 45.4932 89.7986 45.5593 89.2731 45.3758L87.0984 44.6173C86.6952 44.4769 86.687 43.9117 87.0836 43.758V43.7597Z" fill="#0D1B60"/>
<path d="M44.7517 45.9958C44.175 45.9958 43.6297 45.9198 43.1174 45.7694C42.6051 45.6174 42.1325 45.4009 41.6996 45.12C41.2666 44.8391 40.8915 44.5036 40.5742 44.1136L41.8301 42.8577C42.2052 43.3204 42.6382 43.6625 43.129 43.8856C43.6198 44.1103 44.1684 44.221 44.7749 44.221C45.3813 44.221 45.849 44.1169 46.1812 43.9071C46.5133 43.6972 46.6786 43.4064 46.6786 43.0312C46.6786 42.6561 46.5447 42.3636 46.2787 42.1554C46.011 41.9455 45.6689 41.7737 45.2508 41.6365C44.8327 41.4994 44.3882 41.3622 43.9205 41.225C43.4512 41.0879 43.0084 40.9111 42.5886 40.6946C42.1705 40.4781 41.8268 40.1823 41.5608 39.8072C41.2931 39.4321 41.1609 38.9347 41.1609 38.3133C41.1609 37.692 41.3129 37.1549 41.6153 36.7005C41.9194 36.2461 42.3407 35.8957 42.8811 35.6512C43.4231 35.4066 44.0742 35.2843 44.8393 35.2843C45.6474 35.2843 46.3646 35.4248 46.9925 35.7057C47.6205 35.9866 48.1361 36.4097 48.5393 36.9715L47.2834 38.2274C46.9942 37.8523 46.6373 37.5648 46.2126 37.3615C45.7862 37.1599 45.307 37.0574 44.7732 37.0574C44.2097 37.0574 43.7817 37.1549 43.4859 37.3499C43.1901 37.5449 43.0414 37.8159 43.0414 38.1613C43.0414 38.5067 43.172 38.7744 43.4314 38.9628C43.6908 39.1512 44.0346 39.3098 44.4593 39.4387C44.8856 39.5692 45.3285 39.7014 45.7912 39.8386C46.2539 39.9758 46.6934 40.1592 47.1115 40.3905C47.5296 40.6219 47.8733 40.9326 48.1394 41.3209C48.4054 41.7109 48.5393 42.2232 48.5393 42.8577C48.5393 43.8244 48.1956 44.5895 47.5114 45.1514C46.8256 45.7149 45.9052 45.9958 44.7517 45.9958Z" fill="#0D1B60"/>
<path d="M55.0534 45.9959C54.0288 45.9959 53.1051 45.7612 52.2838 45.2919C51.4608 44.8226 50.8114 44.1847 50.3355 43.3767C49.8595 42.5686 49.6216 41.6515 49.6216 40.6286C49.6216 39.6057 49.8562 38.71 50.3255 37.9019C50.7949 37.0939 51.4294 36.456 52.2309 35.9867C53.0323 35.5174 53.9297 35.2827 54.9261 35.2827C55.9226 35.2827 56.7191 35.4992 57.4478 35.9321C58.1766 36.3651 58.7467 36.9633 59.1582 37.7284C59.5697 38.4935 59.7746 39.3594 59.7746 40.3262C59.7746 40.4716 59.7663 40.6253 59.7531 40.7922C59.7382 40.9574 59.7101 41.1491 59.6671 41.3656H50.9882V39.7412H58.6277L57.9138 40.3691C57.9138 39.6767 57.7916 39.0884 57.547 38.6059C57.3008 38.1217 56.9554 37.7482 56.5076 37.4805C56.0597 37.2145 55.5194 37.0806 54.8848 37.0806C54.2502 37.0806 53.6372 37.2261 53.1315 37.5136C52.6258 37.8028 52.2358 38.206 51.9632 38.7265C51.6905 39.2471 51.5517 39.8601 51.5517 40.5658C51.5517 41.2714 51.6955 41.9192 51.9847 42.4595C52.2739 43.0016 52.6837 43.4196 53.2191 43.7154C53.7528 44.0112 54.3659 44.16 55.0583 44.16C55.635 44.16 56.1655 44.0592 56.6497 43.8559C57.1339 43.6543 57.5486 43.3519 57.894 42.947L59.1499 44.2244C58.6591 44.8011 58.056 45.2407 57.3421 45.5448C56.6282 45.8472 55.8664 45.9992 55.0583 45.9992L55.0534 45.9959Z" fill="#0D1B60"/>
<path d="M61.46 45.7794V35.4992H63.4083V45.7794H61.46ZM68.7326 45.7794V39.7841C68.7326 39.0058 68.4864 38.363 67.9956 37.859C67.5048 37.3533 66.8703 37.1005 66.0919 37.1005C65.573 37.1005 65.1103 37.2161 64.7071 37.4475C64.3023 37.6788 63.985 37.9961 63.7553 38.3993C63.5239 38.8042 63.4099 39.2652 63.4099 39.7841L62.6085 39.3297C62.6085 38.5514 62.782 37.8573 63.1273 37.2525C63.4744 36.646 63.9569 36.1668 64.5782 35.8132C65.1979 35.4595 65.8986 35.2827 66.6769 35.2827C67.4552 35.2827 68.1443 35.4777 68.7442 35.8677C69.3424 36.2577 69.815 36.765 70.162 37.393C70.5074 38.0209 70.6809 38.6885 70.6809 39.3958V45.7811H68.7326V45.7794Z" fill="#0D1B60"/>
<path d="M77.2383 45.9958C76.2865 45.9958 75.4338 45.7612 74.6852 45.2918C73.935 44.8225 73.3384 44.1847 72.8988 43.3766C72.4593 42.5685 72.2395 41.6596 72.2395 40.65C72.2395 39.6403 72.4593 38.7314 72.8988 37.9233C73.3384 37.1153 73.9333 36.4724 74.6852 35.9965C75.4354 35.5206 76.2865 35.2826 77.2383 35.2826C78.0034 35.2826 78.6958 35.4446 79.3155 35.7701C79.9352 36.094 80.4376 36.5418 80.8193 37.112C81.2027 37.6821 81.4142 38.3414 81.4572 39.0917V42.1868C81.4142 42.9222 81.2043 43.5799 80.8292 44.1566C80.4541 44.7333 79.9567 45.1844 79.3353 45.51C78.7157 45.8339 78.015 45.9958 77.2367 45.9958H77.2383ZM77.5622 44.1566C78.2116 44.1566 78.7768 44.0045 79.261 43.7021C79.7452 43.3997 80.1236 42.985 80.3979 42.4578C80.6722 41.9323 80.8094 41.3291 80.8094 40.6516C80.8094 39.9741 80.6689 39.3313 80.388 38.8124C80.1071 38.2935 79.7237 37.882 79.2412 37.578C78.757 37.2756 78.1918 37.1235 77.5424 37.1235C76.8929 37.1235 76.3228 37.2756 75.832 37.578C75.3412 37.882 74.9562 38.2951 74.6736 38.8223C74.3927 39.3494 74.2506 39.951 74.2506 40.6301C74.2506 41.3093 74.3911 41.9323 74.6736 42.4595C74.9546 42.9866 75.3446 43.4014 75.842 43.7038C76.3394 44.0062 76.9128 44.1582 77.5622 44.1582V44.1566ZM82.6486 45.7793H80.6788V43.0097L81.0473 40.4996L80.6788 38.0109V30.3268H82.6486V45.781V45.7793Z" fill="#0D1B60"/>
</g>
<defs>
<linearGradient id="paint0_linear_2292_2042" x1="28.8209" y1="15.0025" x2="33.5983" y2="17.6531" gradientUnits="userSpaceOnUse">
<stop stop-color="#4A5FFF"/>
<stop offset="0.16" stop-color="#747DFC"/>
<stop offset="0.41" stop-color="#897EFC"/>
<stop offset="0.7" stop-color="#AB80FC"/>
<stop offset="1" stop-color="#D482FC"/>
</linearGradient>
<linearGradient id="paint1_linear_2292_2042" x1="56.8014" y1="14.9166" x2="62.7124" y2="18.1969" gradientUnits="userSpaceOnUse">
<stop stop-color="#4A5FFF"/>
<stop offset="0.16" stop-color="#747DFC"/>
<stop offset="0.41" stop-color="#897EFC"/>
<stop offset="0.7" stop-color="#AB80FC"/>
<stop offset="1" stop-color="#D482FC"/>
</linearGradient>
<linearGradient id="paint2_linear_2292_2042" x1="0.535411" y1="-1.66128" x2="89.8085" y2="47.8857" gradientUnits="userSpaceOnUse">
<stop stop-color="#4A5FFF"/>
<stop offset="0.43" stop-color="#967FFC"/>
<stop offset="1" stop-color="#D482FC"/>
</linearGradient>
<clipPath id="clip0_2292_2042">
<rect width="98.875" height="56" fill="white" transform="translate(0.5625)"/>
</clipPath>
</defs>
</svg>
