<svg width="289" height="200" viewBox="0 0 289 200" fill="none" xmlns="http://www.w3.org/2000/svg">
<path d="M164.174 21.8127C118.464 37.2462 17.626 -25.0909 2.27606 50.4783C-10.3191 112.488 53.0734 174.718 135.507 195.889C194.041 210.922 273.459 185.108 287.008 112.199C295.482 66.5967 261.278 14.5335 234.216 4.15565C200.45 -8.79309 193.992 11.7449 164.174 21.8127Z" fill="#F6F7FF"/>
<path d="M242 64.9808H55.4111V110.264H242V64.9808Z" fill="#F6F7FF"/>
<path d="M237.794 69.1932H51.2051V114.477H237.794V69.1932Z" fill="#4A5FFF"/>
<path d="M233.588 73.4062H46.9995V118.69H233.588V73.4062Z" fill="#EDF0F4"/>
<path d="M224.686 109.773V82.3227L55.9025 82.3227V109.773L224.686 109.773Z" fill="white"/>
<path d="M196.292 82.3226V109.773H197.061V82.3226H196.292Z" fill="#4A5FFF"/>
<path d="M223.917 82.3226V109.773H224.686V82.3226H223.917Z" fill="#4A5FFF"/>
<path d="M224.686 82.3227H196.677V83.0919H224.686V82.3227Z" fill="#4A5FFF"/>
<path d="M224.686 109.004H196.677V109.773H224.686V109.004Z" fill="#4A5FFF"/>
<path d="M210.038 99.486C208.917 99.486 207.796 99.0586 206.942 98.2032C205.234 96.4929 205.234 93.7096 206.942 91.9999C208.649 90.2896 211.428 90.2896 213.135 91.9999C214.842 93.7102 214.842 96.4935 213.135 98.2032C212.281 99.0586 211.16 99.486 210.038 99.486ZM210.038 91.9054C209.221 91.9054 208.403 92.2169 207.781 92.8405C206.536 94.0871 206.536 96.116 207.781 97.3626C209.026 98.6098 211.051 98.6098 212.296 97.3626C213.541 96.116 213.541 94.0871 212.296 92.8405C211.673 92.2169 210.856 91.9054 210.038 91.9054Z" fill="#4A5FFF"/>
<path d="M215.715 101.381C215.563 101.381 215.411 101.323 215.296 101.207L212.298 98.205C212.066 97.9726 212.066 97.5969 212.298 97.3644C212.53 97.132 212.905 97.132 213.137 97.3644L216.135 100.366C216.367 100.599 216.367 100.975 216.135 101.207C216.019 101.323 215.867 101.381 215.715 101.381Z" fill="#4A5FFF"/>
<path d="M220.827 132.882H235.992L210.104 105.989L220.827 132.882Z" fill="url(#paint0_linear_2292_3500)"/>
<path d="M210.104 105.989V143.624L212.784 140.938L220.827 132.882L210.104 105.989Z" fill="url(#paint1_linear_2292_3500)"/>
<path d="M184.939 79.7688C183.509 75.8334 181.331 72.2488 178.559 69.1991H131.372C128.612 72.2369 126.428 75.8156 124.992 79.7688L131.52 112.322C137.01 118.296 144.761 122.184 153.497 122.588C163.289 123.04 172.257 119.016 178.417 112.322C183.325 106.989 186.459 99.9628 186.821 92.1515C187.022 87.8 186.34 83.615 184.939 79.7688Z" fill="#4A5FFF"/>
<path d="M186.821 92.1515C186.459 99.9628 183.325 106.989 178.417 112.322H131.52C125.954 106.276 122.707 98.0843 123.117 89.2148C123.271 85.9036 123.918 82.7292 124.992 79.7687H184.94C186.34 83.6149 187.023 87.8 186.821 92.1515Z" fill="white"/>
<path opacity="0.4" d="M186.821 92.1516C186.459 99.9629 183.325 106.989 178.417 112.322C172.257 119.016 163.289 123.04 153.497 122.588C144.761 122.184 137.01 118.296 131.52 112.322C125.954 106.276 122.707 98.0843 123.117 89.2149C123.271 85.9037 123.918 82.7292 124.992 79.7688C126.428 75.8156 128.612 72.2369 131.372 69.1992C137.538 62.4163 146.565 58.3263 156.429 58.7781C165.248 59.1883 173.058 63.1415 178.56 69.1992C181.331 72.2488 183.509 75.8334 184.94 79.7688C186.34 83.615 187.023 87.8 186.821 92.1516Z" fill="#D4E8FF"/>
<path opacity="0.4" d="M172.942 64.3031L127.089 106.188C126.853 105.764 126.628 105.334 126.411 104.9C125.028 102.127 124.044 99.1341 123.521 95.9876V95.9841L163.126 59.8071C166.685 60.7452 169.994 62.2843 172.942 64.3031Z" fill="#D4E8FF"/>
<path opacity="0.4" d="M185.209 80.5374L142.1 119.913C137.592 117.924 133.648 114.924 130.541 111.21L177.616 68.2088C181.022 71.649 183.642 75.8584 185.209 80.5374Z" fill="#D4E8FF"/>
<path d="M186.807 72.2618C176.65 54.6484 154.16 48.6163 136.576 58.7894C118.992 68.9626 112.97 91.4899 123.126 109.103C133.284 126.72 155.774 132.752 173.358 122.579C190.943 112.406 196.965 89.8783 186.807 72.2618ZM129.842 105.217C121.829 91.3205 126.578 73.5453 140.455 65.517C154.332 57.4887 172.076 62.2504 180.09 76.1473C188.104 90.0471 183.355 107.823 169.479 115.851C155.602 123.879 137.857 119.117 129.842 105.217Z" fill="#4A5FFF"/>
<path d="M128.754 110.089C123.921 113.666 118.971 117.039 113.987 120.354C108.999 123.663 103.965 126.89 98.8965 130.058C93.8181 133.209 88.7219 136.329 83.5782 139.367C81.0173 140.906 78.425 142.389 75.8505 143.902C74.5769 144.683 73.2297 145.337 71.7311 145.727C70.9851 145.928 70.1994 146.06 69.3732 146.123C68.5424 146.177 67.6812 146.177 66.7079 145.984C64.0681 145.46 62.3518 142.891 62.8752 140.247C62.9156 140.043 62.9773 139.818 63.0414 139.626C63.3607 138.685 63.7916 137.937 64.2539 137.244C64.7204 136.558 65.2278 135.943 65.7744 135.396C66.861 134.291 68.0996 133.449 69.4112 132.734C72.0065 131.256 74.5852 129.748 77.1947 128.295C82.3918 125.35 87.6364 122.488 92.8994 119.656C98.1713 116.842 103.478 114.086 108.832 111.413C114.189 108.745 119.58 106.136 125.088 103.73C126.956 102.914 129.13 103.769 129.944 105.64C130.644 107.25 130.107 109.088 128.754 110.089Z" fill="#4A5FFF"/>
<defs>
<linearGradient id="paint0_linear_2292_3500" x1="235.992" y1="110.191" x2="205.924" y2="119.789" gradientUnits="userSpaceOnUse">
<stop stop-color="#CB62FF"/>
<stop offset="0.729" stop-color="#4A5FFF"/>
</linearGradient>
<linearGradient id="paint1_linear_2292_3500" x1="220.827" y1="111.869" x2="207.225" y2="113.155" gradientUnits="userSpaceOnUse">
<stop stop-color="#CB62FF"/>
<stop offset="0.729" stop-color="#4A5FFF"/>
</linearGradient>
</defs>
</svg>
