<svg width="113" height="64" viewBox="0 0 113 64" fill="none" xmlns="http://www.w3.org/2000/svg">
<g clip-path="url(#clip0_2202_317)">
<rect x="12.5494" y="3" width="70.8846" height="25.5576" fill="white"/>
<path d="M36.255 15.4571C35.798 15.1889 35.2692 15.0548 34.6667 15.0548C34.0643 15.0548 33.5581 15.1889 33.103 15.4571C32.6459 15.7253 32.289 16.0973 32.0284 16.5694C31.7678 17.0416 31.6375 17.5874 31.6375 18.2068C31.6375 18.8263 31.7678 19.3759 32.0284 19.8556C32.289 20.3372 32.6478 20.7111 33.103 20.9793C33.5581 21.2474 34.0813 21.3834 34.6667 21.3834C35.2522 21.3834 35.8036 21.2493 36.2663 20.9793C36.7309 20.7111 37.0879 20.3372 37.3409 19.8556C37.594 19.3759 37.7205 18.8263 37.7205 18.2068C37.7205 17.5874 37.5902 17.0416 37.3296 16.5694C37.069 16.0973 36.7102 15.7253 36.255 15.4571Z" fill="url(#paint0_linear_2202_317)"/>
<path d="M68.3965 15.4326C67.949 15.1644 67.422 15.0284 66.8215 15.0284C66.2209 15.0284 65.7167 15.1625 65.2691 15.4326C64.8215 15.7008 64.4702 16.0766 64.219 16.5563C63.966 17.0379 63.8413 17.5875 63.8413 18.205C63.8413 18.8226 63.9678 19.3986 64.219 19.8783C64.4721 20.3599 64.8215 20.7338 65.2691 21.002C65.7167 21.2702 66.2341 21.4043 66.8215 21.4043C67.7167 21.4043 68.4419 21.1078 68.9952 20.5129C69.5486 19.918 69.8262 19.1493 69.8262 18.2031C69.8262 17.5837 69.6997 17.0341 69.4485 16.5544C69.1954 16.0747 68.846 15.6989 68.3965 15.4307V15.4326Z" fill="url(#paint1_linear_2202_317)"/>
<path d="M87.5826 -0.000854492H5.7186C2.56091 -0.000854492 0 2.43163 0 5.43068V27.1814C0 27.3193 0.0113314 27.4533 0.0207743 27.5874L0.0906516 45.2607L12.3796 32.6129H87.5807C90.7384 32.6129 93.2993 30.1804 93.2993 27.1814V5.43068C93.2993 2.43163 90.7384 -0.000854492 87.5807 -0.000854492H87.5826ZM25.2276 22.9963C24.1039 23.9085 22.5647 24.3655 20.61 24.3655C19.2257 24.3655 18.0397 24.1295 17.0538 23.6573C16.068 23.1852 15.1766 22.477 14.3777 21.5308L16.5779 19.3306C17.0822 19.9991 17.6695 20.5166 18.3381 20.883C19.0066 21.2494 19.8206 21.4326 20.7819 21.4326C21.6449 21.4326 22.3343 21.2607 22.8461 20.9189C23.3579 20.577 23.6147 20.1049 23.6147 19.5024C23.6147 18.9812 23.4674 18.5582 23.1747 18.2314C22.882 17.9066 22.4948 17.629 22.0132 17.4005C21.5316 17.1719 21.0028 16.9642 20.4249 16.7772C19.847 16.5903 19.2691 16.3731 18.6912 16.1295C18.1133 15.8858 17.5826 15.5799 17.1029 15.2135C16.6232 14.8471 16.2361 14.375 15.9433 13.7971C15.6506 13.2192 15.5033 12.4902 15.5033 11.6101C15.5033 10.5676 15.7564 9.67998 16.2606 8.94721C16.7649 8.21444 17.458 7.65165 18.3381 7.26071C19.2181 6.86978 20.2115 6.67337 21.3201 6.67337C22.4929 6.67337 23.5524 6.89244 24.4967 7.33248C25.441 7.77252 26.2153 8.34287 26.8178 9.04353L24.6176 11.2437C24.1133 10.6904 23.5958 10.2824 23.0652 10.0218C22.5364 9.76118 21.9377 9.63087 21.2691 9.63087C20.5043 9.63087 19.8999 9.77818 19.4618 10.0709C19.0217 10.3636 18.8026 10.7886 18.8026 11.3419C18.8026 11.8141 18.95 12.1974 19.2427 12.4902C19.5354 12.7829 19.9226 13.036 20.4042 13.2475C20.8839 13.459 21.4145 13.663 21.9924 13.8575C22.5704 14.0539 23.1483 14.273 23.728 14.5166C24.306 14.7602 24.8366 15.0794 25.3163 15.4703C25.796 15.8613 26.1832 16.3618 26.4778 16.9736C26.7705 17.5837 26.9178 18.3391 26.9178 19.2343C26.9178 20.8301 26.3551 22.086 25.2314 22.9982L25.2276 22.9963ZM40.1643 21.3211C39.611 22.2579 38.8574 23.0001 37.9037 23.5459C36.95 24.0917 35.8791 24.3636 34.6912 24.3636C33.5033 24.3636 32.4306 24.0917 31.4788 23.5459C30.5269 23.0001 29.7677 22.2598 29.2068 21.3211C28.6459 20.3844 28.3645 19.3381 28.3645 18.1823C28.3645 17.0265 28.6421 15.9878 29.1955 15.0662C29.7488 14.1465 30.5061 13.4137 31.4674 12.866C32.4287 12.3202 33.4958 12.0482 34.6686 12.0482C35.8414 12.0482 36.9537 12.3221 37.9056 12.866C38.8593 13.4118 39.611 14.1446 40.1662 15.0662C40.7195 15.9878 40.9972 17.0246 40.9972 18.1823C40.9972 19.34 40.7195 20.3863 40.1662 21.3211H40.1643ZM51.2408 23.8499C50.4589 24.1918 49.6034 24.3636 48.6742 24.3636C47.4693 24.3636 46.3853 24.0955 45.424 23.5572C44.4627 23.019 43.7054 22.2862 43.152 21.3589C42.5987 20.4297 42.3211 19.3872 42.3211 18.2314C42.3211 17.0756 42.5987 16.0086 43.152 15.0794C43.7054 14.1502 44.4665 13.4137 45.4372 12.8679C46.406 12.3221 47.4863 12.0501 48.6742 12.0501C49.6034 12.0501 50.4589 12.222 51.2408 12.5638C52.0227 12.9057 52.6988 13.3948 53.2691 14.0294L51.2162 16.1068C50.9065 15.765 50.5364 15.5043 50.1039 15.3249C49.6714 15.1455 49.1955 15.0567 48.6742 15.0567C48.0869 15.0567 47.5619 15.1908 47.0992 15.459C46.6346 15.7272 46.2682 16.0936 46 16.5582C45.7318 17.0228 45.5958 17.5723 45.5958 18.2069C45.5958 18.8414 45.7299 19.3759 46 19.8556C46.2682 20.3372 46.6346 20.7111 47.0992 20.9793C47.5637 21.2475 48.0888 21.3835 48.6742 21.3835C49.2125 21.3835 49.6959 21.289 50.1284 21.1021C50.559 20.9151 50.9311 20.6413 51.2408 20.2843L53.3182 22.3618C52.7158 23.0133 52.0227 23.51 51.2408 23.8518V23.8499ZM58.406 24.12H55.1804V12.3183H58.406V24.12ZM58.102 9.88583C57.7677 10.2371 57.3333 10.4109 56.7951 10.4109C56.2569 10.4109 55.8414 10.2371 55.4995 9.88583C55.1577 9.53456 54.9858 9.10018 54.9858 8.57894C54.9858 8.05769 55.1558 7.6422 55.4995 7.28338C55.8414 6.92455 56.272 6.74513 56.7951 6.74513C57.3182 6.74513 57.7677 6.92455 58.102 7.28338C58.4363 7.6422 58.6025 8.07469 58.6025 8.57894C58.6025 9.08319 58.4363 9.53644 58.102 9.88583ZM72.831 24.12H69.6544V22.968C69.3296 23.3117 68.95 23.6063 68.5061 23.8386C67.8376 24.188 67.0803 24.3636 66.2342 24.3636C65.1596 24.3636 64.1889 24.0955 63.3258 23.5572C62.4627 23.019 61.7866 22.2862 61.2975 21.3589C60.8083 20.4297 60.5647 19.3872 60.5647 18.2314C60.5647 17.0756 60.8083 16.0086 61.2975 15.0794C61.7866 14.1502 62.4608 13.4175 63.3258 12.8792C64.1889 12.341 65.1577 12.0728 66.2342 12.0728C67.0803 12.0728 67.8376 12.2428 68.5061 12.5865C68.95 12.8131 69.3296 13.1058 69.6544 13.4533V12.3183H72.831V24.12ZM78.9235 24.12H75.7224V6.4524H78.9235V24.12Z" fill="url(#paint2_linear_2202_317)"/>
<path d="M103.267 52.9515C103.246 53.1233 103.16 53.2876 103.016 53.4009C101.143 54.874 99.1803 56.2716 97.1123 57.535C94.863 58.908 92.4683 60.0884 89.9811 61.0327C84.999 62.9288 79.6921 63.8825 74.3965 63.9864C69.0802 64.1035 63.728 63.3122 58.7591 61.5086C56.27 60.6266 53.8621 59.5388 51.6147 58.1885C49.3616 56.8627 47.2143 55.333 45.3767 53.501C49.8281 56.1243 54.6043 57.9486 59.473 59.1498C64.3342 60.3868 69.3352 60.8268 74.2813 60.6153C79.2634 60.4151 84.2077 59.5766 88.9178 58.0374C89.7034 57.7843 90.4872 57.5237 91.2747 57.2442C92.0679 56.9685 92.8592 56.6776 93.643 56.3736C96.5873 55.2329 99.49 53.8939 102.262 52.2886C102.565 52.1148 102.952 52.1941 103.15 52.4888C103.248 52.6266 103.284 52.7947 103.267 52.9496V52.9515Z" fill="white"/>
<path d="M98.5364 49.5708L111.67 44.5037C112.304 44.2601 112.959 44.804 112.835 45.4726L110.944 55.6369C110.795 56.4433 109.856 56.8191 109.192 56.3394L104.642 53.0571C104.285 52.7983 104.257 52.2771 104.584 51.9825L109.122 47.8899C109.241 47.7842 109.239 47.5972 109.12 47.4914C109.031 47.4121 108.901 47.4027 108.801 47.465L102.84 51.2138C102.302 51.5519 101.639 51.6274 101.039 51.4178L98.5534 50.5509C98.0926 50.3904 98.0831 49.7445 98.5364 49.5689V49.5708Z" fill="white"/>
<path d="M50.1568 52.1265C49.4976 52.1265 48.8744 52.0396 48.289 51.8678C47.7035 51.694 47.1634 51.4466 46.6686 51.1256C46.1738 50.8045 45.7451 50.4211 45.3824 49.9754L46.8178 48.5401C47.2465 49.0689 47.7413 49.4598 48.3022 49.7148C48.8631 49.9716 49.4901 50.0982 50.1832 50.0982C50.8763 50.0982 51.4108 49.9792 51.7904 49.7393C52.17 49.4995 52.3588 49.1671 52.3588 48.7384C52.3588 48.3097 52.2059 47.9754 51.9018 47.7375C51.5959 47.4976 51.2049 47.3012 50.7271 47.1444C50.2493 46.9877 49.7413 46.8309 49.2068 46.6742C48.6705 46.5174 48.1643 46.3154 47.6846 46.068C47.2068 45.8206 46.814 45.4825 46.5099 45.0538C46.204 44.6251 46.0529 44.0566 46.0529 43.3465C46.0529 42.6364 46.2266 42.0226 46.5722 41.5033C46.9197 40.9839 47.4013 40.5835 48.0189 40.304C48.6383 40.0245 49.3824 39.8848 50.2569 39.8848C51.1804 39.8848 52 40.0453 52.7177 40.3664C53.4353 40.6874 54.0246 41.1709 54.4854 41.813L53.0501 43.2483C52.7196 42.8196 52.3116 42.491 51.8263 42.2587C51.339 42.0283 50.7913 41.9112 50.1813 41.9112C49.5373 41.9112 49.0482 42.0226 48.7101 42.2455C48.3721 42.4683 48.2021 42.7781 48.2021 43.1728C48.2021 43.5675 48.3513 43.8734 48.6478 44.0887C48.9443 44.304 49.3371 44.4853 49.8225 44.6326C50.3097 44.7818 50.8159 44.9329 51.3447 45.0897C51.8735 45.2464 52.3758 45.4561 52.8536 45.7205C53.3315 45.9849 53.7243 46.3399 54.0283 46.7837C54.3324 47.2294 54.4854 47.8149 54.4854 48.5401C54.4854 49.6449 54.0925 50.5193 53.3107 51.1614C52.5269 51.8054 51.475 52.1265 50.1568 52.1265Z" fill="white"/>
<path d="M61.9302 52.1262C60.7592 52.1262 59.7035 51.858 58.7649 51.3217C57.8244 50.7853 57.0822 50.0563 56.5383 49.1328C55.9944 48.2093 55.7224 47.1611 55.7224 45.9921C55.7224 44.8231 55.9906 43.7995 56.5269 42.876C57.0633 41.9524 57.7885 41.2235 58.7045 40.6871C59.6204 40.1507 60.6459 39.8826 61.7847 39.8826C62.9235 39.8826 63.8338 40.13 64.6667 40.6248C65.4996 41.1196 66.1511 41.8032 66.6214 42.6777C67.0916 43.5521 67.3258 44.5417 67.3258 45.6465C67.3258 45.8127 67.3164 45.9883 67.3013 46.1791C67.2843 46.3679 67.2522 46.587 67.2031 46.8344H57.2843V44.9779H66.0151L65.1993 45.6956C65.1993 44.9043 65.0595 44.232 64.78 43.6805C64.4986 43.1271 64.1039 42.7003 63.5921 42.3944C63.0803 42.0903 62.4627 41.9373 61.7375 41.9373C61.0123 41.9373 60.3117 42.1035 59.7337 42.4321C59.1558 42.7626 58.7101 43.2235 58.3985 43.8184C58.0869 44.4133 57.9283 45.1139 57.9283 45.9203C57.9283 46.7268 58.0926 47.4671 58.4231 48.0846C58.7536 48.7041 59.2219 49.1819 59.8338 49.52C60.4439 49.858 61.1445 50.028 61.9358 50.028C62.5949 50.028 63.2012 49.9128 63.7545 49.6805C64.3079 49.4501 64.7819 49.1045 65.1766 48.6418L66.6119 50.1016C66.051 50.7608 65.3617 51.2631 64.5458 51.6106C63.73 51.9562 62.8593 52.13 61.9358 52.13L61.9302 52.1262Z" fill="white"/>
<path d="M69.2522 51.8788V40.13H71.4788V51.8788H69.2522ZM77.5638 51.8788V45.027C77.5638 44.1375 77.2824 43.4029 76.7215 42.8269C76.1606 42.249 75.4354 41.96 74.5459 41.96C73.9529 41.96 73.4241 42.0922 72.9632 42.3566C72.5005 42.621 72.1379 42.9836 71.8754 43.4444C71.611 43.9071 71.4807 44.434 71.4807 45.027L70.5648 44.5077C70.5648 43.6182 70.7631 42.825 71.1578 42.1338C71.5544 41.4406 72.1058 40.893 72.8159 40.4888C73.5242 40.0846 74.3249 39.8826 75.2144 39.8826C76.1039 39.8826 76.8915 40.1054 77.577 40.5511C78.2607 40.9968 78.8008 41.5766 79.1974 42.2943C79.5921 43.0119 79.7904 43.7749 79.7904 44.5832V51.8807H77.5638V51.8788Z" fill="white"/>
<path d="M87.2842 52.1262C86.1964 52.1262 85.2219 51.858 84.3664 51.3217C83.509 50.7853 82.8272 50.0563 82.3248 49.1328C81.8225 48.2093 81.5713 47.1706 81.5713 46.0167C81.5713 44.8628 81.8225 43.824 82.3248 42.9005C82.8272 41.977 83.5071 41.2424 84.3664 40.6984C85.2238 40.1545 86.1964 39.8826 87.2842 39.8826C88.1586 39.8826 88.9499 40.0677 89.6582 40.4397C90.3664 40.8099 90.9405 41.3217 91.3768 41.9732C91.8149 42.6248 92.0567 43.3783 92.1058 44.2357V47.773C92.0567 48.6135 91.8168 49.3651 91.3881 50.0242C90.9594 50.6833 90.3909 51.1989 89.6808 51.571C88.9726 51.9411 88.1719 52.1262 87.2823 52.1262H87.2842ZM87.6544 50.0242C88.3966 50.0242 89.0425 49.8505 89.5958 49.5049C90.1492 49.1593 90.5817 48.6852 90.8952 48.0828C91.2087 47.4822 91.3654 46.7929 91.3654 46.0186C91.3654 45.2442 91.2049 44.5096 90.8838 43.9166C90.5628 43.3236 90.1246 42.8533 89.5732 42.5058C89.0198 42.1602 88.3739 41.9865 87.6317 41.9865C86.8895 41.9865 86.238 42.1602 85.677 42.5058C85.1161 42.8533 84.6761 43.3255 84.3532 43.9279C84.0321 44.5304 83.8697 45.2178 83.8697 45.994C83.8697 46.7702 84.0302 47.4822 84.3532 48.0847C84.6742 48.6871 85.1199 49.1611 85.6884 49.5068C86.2568 49.8524 86.9122 50.0261 87.6544 50.0261V50.0242ZM93.4674 51.8788H91.2162V48.7136L91.6374 45.8448L91.2162 43.0006V34.2188H93.4674V51.8807V51.8788Z" fill="white"/>
</g>
<defs>
<linearGradient id="paint0_linear_2202_317" x1="31.951" y1="16.7054" x2="37.4108" y2="19.7347" gradientUnits="userSpaceOnUse">
<stop stop-color="#4A5FFF"/>
<stop offset="0.16" stop-color="#747DFC"/>
<stop offset="0.41" stop-color="#897EFC"/>
<stop offset="0.7" stop-color="#AB80FC"/>
<stop offset="1" stop-color="#D482FC"/>
</linearGradient>
<linearGradient id="paint1_linear_2202_317" x1="63.9282" y1="16.6073" x2="70.6836" y2="20.3561" gradientUnits="userSpaceOnUse">
<stop stop-color="#4A5FFF"/>
<stop offset="0.16" stop-color="#747DFC"/>
<stop offset="0.41" stop-color="#897EFC"/>
<stop offset="0.7" stop-color="#AB80FC"/>
<stop offset="1" stop-color="#D482FC"/>
</linearGradient>
<linearGradient id="paint2_linear_2202_317" x1="-0.375825" y1="-2.33891" x2="101.651" y2="54.2862" gradientUnits="userSpaceOnUse">
<stop stop-color="#4A5FFF"/>
<stop offset="0.43" stop-color="#967FFC"/>
<stop offset="1" stop-color="#D482FC"/>
</linearGradient>
<clipPath id="clip0_2202_317">
<rect width="113" height="64" fill="white"/>
</clipPath>
</defs>
</svg>
