<svg width="24" height="24" viewBox="0 0 24 24" fill="none" xmlns="http://www.w3.org/2000/svg">
<path d="M12 0C5.37302 0 -0.000488281 5.37246 -0.000488281 12C-0.000488281 18.6275 5.3725 24 12 24C18.6281 24 24.0006 18.6275 24.0006 12C24.0006 5.37246 18.6281 0 12 0ZM12 3.58814C14.1929 3.58814 15.9698 5.36561 15.9698 7.55739C15.9698 9.7497 14.1929 11.5266 12 11.5266C9.80825 11.5266 8.03132 9.7497 8.03132 7.55739C8.03132 5.36561 9.80825 3.58814 12 3.58814ZM11.9974 20.8626C9.81036 20.8626 7.80729 20.0661 6.26228 18.7477C5.88592 18.4267 5.66874 17.956 5.66874 17.4621C5.66874 15.2392 7.46782 13.4601 9.69123 13.4601H14.3099C16.5338 13.4601 18.3261 15.2392 18.3261 17.4621C18.3261 17.9565 18.1099 18.4262 17.733 18.7472C16.1886 20.0661 14.185 20.8626 11.9974 20.8626Z" fill="url(#paint0_linear_4195_1226)"/>
<defs>
<linearGradient id="paint0_linear_4195_1226" x1="24.0006" y1="3.75" x2="-3.67249" y2="12.9263" gradientUnits="userSpaceOnUse">
<stop stop-color="#CB62FF"/>
<stop offset="0.729" stop-color="#4A5FFF"/>
</linearGradient>
</defs>
</svg>
